<svg width="18" height="20" viewBox="0 0 18 20" fill="none" xmlns="http://www.w3.org/2000/svg">
<path fill-rule="evenodd" clip-rule="evenodd" d="M8.25624 0.02785C6.98711 0.198577 5.81687 0.743527 4.91674 1.58289C4.17718 2.27256 3.66357 3.05878 3.35088 3.9798C3.10962 4.69047 3.06863 4.95927 3.06863 5.83191C3.06863 6.50785 3.0812 6.66908 3.16137 7.01992C3.57199 8.81709 4.69427 10.2328 6.35626 11.05C8.01338 11.865 9.9729 11.8648 11.6379 11.0498C13.2841 10.244 14.4184 8.81091 14.8276 7.01992C14.9077 6.66908 14.9203 6.50785 14.9203 5.83191C14.9203 4.9615 14.8792 4.68996 14.641 3.9884C14.3275 3.06477 13.8089 2.2699 13.0708 1.5816C12.278 0.842303 11.2769 0.332117 10.1717 0.104259C9.70845 0.00876735 8.69774 -0.0315486 8.25624 0.02785ZM9.29851 2.5911C9.48075 2.67588 9.52177 2.74079 9.93028 3.59118C10.2365 4.22877 10.2949 4.32508 10.3862 4.34346C10.4438 4.35507 10.7962 4.40912 11.1693 4.46355C11.9657 4.57976 12.0605 4.60604 12.1953 4.74768C12.3431 4.90292 12.3864 5.0042 12.3862 5.19389C12.386 5.43234 12.3028 5.54532 11.6402 6.20738L11.0579 6.78913L11.2108 7.70072L11.3636 8.61234L11.2736 8.79457C11.1587 9.02708 10.9627 9.15123 10.7105 9.15123C10.5507 9.15123 10.4235 9.09645 9.78467 8.75265C9.37732 8.53347 9.02221 8.3541 8.99559 8.3541C8.96898 8.3541 8.61374 8.53347 8.20624 8.75265C7.56585 9.09711 7.44007 9.15123 7.27933 9.15123C7.02674 9.15123 6.83033 9.02731 6.71596 8.79582L6.62657 8.61484L6.77661 7.69982L6.92665 6.78475L6.3466 6.20519C6.02752 5.88646 5.72967 5.56647 5.6847 5.49417C5.57205 5.31312 5.5754 5.04185 5.69236 4.87347C5.8636 4.62696 5.93127 4.60268 6.83914 4.46245C7.30639 4.39027 7.70073 4.31695 7.71549 4.29947C7.73021 4.28203 7.89239 3.95101 8.07587 3.56389C8.25935 3.17676 8.44175 2.81411 8.48122 2.75796C8.63322 2.54179 9.02181 2.46245 9.29851 2.5911ZM3.63424 11.198C0.689119 16.3583 0.523115 16.6597 0.505278 16.8787C0.490673 17.0576 0.503442 17.1162 0.581017 17.2271C0.755719 17.4765 0.861906 17.5245 1.22639 17.5188C1.52305 17.5142 2.89018 17.4219 3.52821 17.3635L3.78827 17.3397L4.39993 18.5569C4.88904 19.5302 5.03857 19.7942 5.14599 19.8745C5.39547 20.061 5.76359 20.0369 5.97086 19.8204C6.07301 19.7137 8.2054 16.0339 8.20819 15.9594C8.20903 15.9377 7.7443 15.1134 7.1755 14.1276L6.14129 12.3352L5.8855 12.2213C5.32093 11.9697 4.62775 11.5122 4.11892 11.0552L3.85236 10.8157L3.63424 11.198ZM13.9606 10.9775C13.5852 11.366 12.7746 11.908 12.0865 12.2307C10.9983 12.7411 9.62716 12.9913 8.45588 12.8932C8.17455 12.8696 7.9392 12.8554 7.93289 12.8616C7.91046 12.8835 11.8609 19.7156 11.9548 19.8173C12.0747 19.947 12.3324 20.0256 12.523 19.9906C12.8175 19.9365 12.9117 19.802 13.5449 18.5328C13.87 17.8811 14.1509 17.3482 14.169 17.3485C14.1872 17.3488 14.7767 17.3926 15.479 17.4459C16.1813 17.4991 16.8206 17.5429 16.8997 17.5431C17.2976 17.5442 17.6307 17.0154 17.4492 16.6708C17.3006 16.3888 14.1615 10.9456 14.1241 10.9051C14.0879 10.866 14.0536 10.8812 13.9606 10.9775Z" fill="#FE858B"/>
</svg>
